:SAMPLES-PER-SECOND 30
:FULLY-SPECIFIED
:DEGREES
86
root  1.58236 35.5316 2.6897 -81.3449 -79.1285 75.4324
RightUpLeg  -20.7435 -14.8955 -13.2178
RightLeg  60.1479 -5.44718 -10.6944
RightFoot  -23.7314 0.635247 7.28105
RightToes  -1.16417e-010 0 -3.6325e-017
Spine  20.2184 -1.23908 -0.984596
Spine1  -14.9809 -0.960091 -5.13526
HEad  -9.25066 5.87239 -7.16238
LeftShoulder1  0.0171781 3.01289 6.36646
LeftArm  -29.7843 -49.9908 -25.4487
LeftForeArm  125.916 -81.0374 -97.2251
LeftHand  1.98535 12.585 31.213
RightShoulder  0.324047 -1.49002 8.52691
RightArm  5.11036 -14.6524 52.786
RightForeArm  -161.368 65.6386 161.171
RightHand  -3.13335 2.07487 -46.3691
LeftUpLeg  -16.4865 13.8618 12.3012
LeftLeg  58.0545 -5.17083 -8.88591
LeftFoot  -13.4617 -0.47802 -24.682
LeftToes  6.91183e-011 3.39355e-011 2.1261e-011
87
root  1.2474 35.4304 2.99734 -103.74 -77.8746 99.6244
RightUpLeg  -23.1219 -13.9535 -14.3293
RightLeg  60.0524 -4.53321 -8.94256
RightFoot  -25.7036 0.636719 6.46231
RightToes  -1.16417e-010 0 -3.6325e-017
Spine  18.2175 -1.56885 -3.83212
Spine1  -14.8972 -1.92147 0.88804
HEad  -11.1237 13.2332 -12.3829
LeftShoulder1  0.0828193 6.86266 12.4947
LeftArm  -63.162 -52.0517 -0.318642
LeftForeArm  68.699 -75.1785 -36.704
LeftHand  2.61453 11.7933 43.9648
RightShoulder  0.934065 0.925318 14.43
RightArm  9.09109 -30.9176 49.9623
RightForeArm  -171.641 70.944 154.348
RightHand  -3.75966 3.124 -48.5668
LeftUpLeg  -9.75604 4.86906 18.4651
LeftLeg  44.2072 -0.684468 -0.0679186
LeftFoot  -3.56495 1.44985 -19.5063
LeftToes  6.91183e-011 3.39355e-011 2.1261e-011
88
root  0.960016 35.1613 3.46472 -125.34 -74.5328 123.27
RightUpLeg  -27.4329 -13.1734 -14.8529
RightLeg  61.5928 -3.2814 -7.09705
RightFoot  -27.2338 0.311336 3.55261
RightToes  -1.16417e-010 0 -3.6325e-017
Spine  17.1072 -1.60552 -6.8445
Spine1  -15.4938 -2.50802 8.34078
HEad  -14.1198 21.4301 -18.0547
LeftShoulder1  0.533397 10.89 17.8776
LeftArm  -84.5109 -45.3514 18.0932
LeftForeArm  48.1322 -55.7972 -12.6203
LeftHand  2.54256 11.2035 46.9516
RightShoulder  1.39369 2.57873 16.336
RightArm  14.3148 -43.1791 44.3321
RightForeArm  178.619 75.1915 145.43
RightHand  -4.06617 3.81625 -48.6548
LeftUpLeg  -0.900665 -7.11005 20.1165
LeftLeg  28.1986 -1.94494 -0.654609
LeftFoot  5.45282 3.85696 -26.1205
LeftToes  6.91183e-011 3.39355e-011 2.1261e-011
89
root  0.821364 34.7245 3.97691 -137.464 -69.7614 137.209
RightUpLeg  -32.1246 -9.89665 -15.6498
RightLeg  63.5858 -2.50939 -6.09411
RightFoot  -28.3984 0.158089 2.32766
RightToes  -1.16417e-010 0 -3.6325e-017
Spine  17.4458 -1.53224 -10.2293
Spine1  -16.0797 -2.96816 15.5946
HEad  -19.522 28.408 -22.6799
LeftShoulder1  1.36339 14.4439 23.6924
LeftArm  -91.8355 -37.5323 31.1202
LeftForeArm  41.5012 -29.1789 -3.38011
LeftHand  1.61906 9.66492 41.1864
RightShoulder  1.48425 3.1023 15.7655
RightArm  23.7942 -50.2608 36.4405
RightForeArm  175.417 77.0512 139.725
RightHand  -3.65961 3.56843 -45.424
LeftUpLeg  5.9028 -17.0188 17.8006
LeftLeg  18.3092 -6.57011 -2.13173
LeftFoot  4.22734 5.13184 -36.7178
LeftToes  6.91183e-011 3.39355e-011 2.1261e-011
90
root  0.825497 34.4818 4.14476 -142.185 -66.2261 143.209
RightUpLeg  -35.2929 -6.07728 -16.1439
RightLeg  64.5425 -2.21793 -5.70881
RightFoot  -28.3181 0.255306 3.00161
RightToes  -1.16417e-010 0 -3.6325e-017
Spine  18.2452 -1.30257 -13.6878
Spine1  -15.7677 -3.49523 19.8266
HEad  -25.7656 31.683 -25.4315
LeftShoulder1  2.56616 17.7087 29.8301
LeftArm  -86.0243 -33.2423 40.3247
LeftForeArm  29.2238 -6.23268 2.10339
LeftHand  0.591287 7.70015 29.725
RightShoulder  1.43685 3.05038 15.1701
RightArm  31.7086 -53.2201 30.1086
RightForeArm  172.277 77.1295 138.796
RightHand  -1.74094 0.0388873 -33.5959
LeftUpLeg  8.32425 -16.0432 16.5553
LeftLeg  15.8868 -9.06102 -2.55131
LeftFoot  1.09148 4.39335 -38.8409
LeftToes  6.91183e-011 3.39355e-011 2.1261e-011
91
root  0.934008 34.4645 4.08059 -143.915 -65.863 145.297
RightUpLeg  -36.0855 -4.5056 -15.1919
RightLeg  64.7409 -2.79061 -7.06545
RightFoot  -27.5916 0.278411 3.25807
RightToes  -1.16417e-010 0 -3.6325e-017
Spine  19.1041 -1.08822 -14.3637
Spine1  -14.9203 -3.72246 19.8997
HEad  -29.0428 30.7962 -26.1467
LeftShoulder1  3.74313 20.6179 33.9666
LeftArm  -81.0638 -33.3595 43.6835
LeftForeArm  14.7808 4.22726 3.89486
LeftHand  0.16032 6.79733 15.6668
RightShoulder  1.39091 2.97325 14.6772
RightArm  31.2665 -56.083 30.1775
RightForeArm  164.431 76.1084 140.388
RightHand  0.175432 -7.07645 -14.2367
LeftUpLeg  7.17657 -9.59198 17.8768
LeftLeg  18.67 -6.27634 -1.99334
LeftFoot  0.366565 3.46609 -32.9839
LeftToes  6.91183e-011 3.39355e-011 2.1261e-011
92
root  1.11392 34.5429 3.9718 -143.491 -68.9589 144.116
RightUpLeg  -34.3494 -4.82201 -13.1832
RightLeg  64.3464 -4.35469 -10.3924
RightFoot  -26.9902 0.300968 3.52486
RightToes  -1.16417e-010 0 -3.6325e-017
Spine  20.2382 -1.195 -11.8975
Spine1  -14.2989 -3.64917 17.3899
HEad  -27.8933 27.8996 -24.6461
LeftShoulder1  3.98843 21.6416 33.981
LeftArm  -89.7023 -35.4072 43.3957
LeftForeArm  15.4446 1.50095 4.73434
LeftHand  0.112638 7.21025 8.099
RightShoulder  1.2881 2.77216 13.6246
RightArm  24.4097 -58.9409 35.9091
RightForeArm  160.7 74.5881 143.699
RightHand  -0.0188056 -13.1413 0.257495
LeftUpLeg  2.95311 -5.21163 19.1064
LeftLeg  26.7177 0.549623 0.751763
LeftFoot  -0.536275 2.27158 -23.5551
LeftToes  6.91183e-011 3.39355e-011 2.1261e-011
93
root  1.30007 34.6612 3.67046 -136.226 -74.6328 135.337
RightUpLeg  -30.6964 -5.73476 -11.0891
RightLeg  63.5242 -6.65787 -14.7988
RightFoot  -26.4477 0.564979 5.61276
RightToes  -1.16417e-010 0 -3.6325e-017
Spine  21.1585 -1.60159 -10.0895
Spine1  -13.8778 -3.89592 15.2299
HEad  -24.3892 24.529 -20.5493
LeftShoulder1  3.16331 19.485 31.6665
LeftArm  -96.9809 -38.7651 40.7543
LeftForeArm  27.0678 -9.04328 1.96859
LeftHand  0.17886 7.50239 11.5674
RightShoulder  1.13775 2.29175 12.6453
RightArm  19.3914 -58.3487 40.8612
RightForeArm  171.346 72.6188 149.462
RightHand  -0.858686 -14.6451 9.52953
LeftUpLeg  -4.68205 -0.222391 19.1673
LeftLeg  40.3174 4.72611 4.65368
LeftFoot  -3.99614 1.15428 -17.6017
LeftToes  6.91183e-011 3.39355e-011 2.1261e-011
94
root  1.38934 34.7562 3.10297 -106.74 -80.0688 104.331
RightUpLeg  -26.8959 -8.26486 -9.06237
RightLeg  63.4543 -9.26466 -19.9226
RightFoot  -25.69 0.952584 8.92709
RightToes  -1.16417e-010 0 -3.6325e-017
Spine  21.4393 -1.88016 -11.3465
Spine1  -13.6666 -4.51304 15.0045
HEad  -20.5838 20.0091 -14.9076
LeftShoulder1  2.38723 16.344 30.5024
LeftArm  -96.0446 -45.3716 34.5387
LeftForeArm  38.5363 -22.1326 -3.0458
LeftHand  0.58252 8.84042 19.4642
RightShoulder  0.993048 1.70412 12.0236
RightArm  19.672 -53.8346 41.1415
RightForeArm  -168.631 68.9353 157.202
RightHand  -1.77648 -13.9696 21.7607
LeftUpLeg  -14.2861 7.78269 16.6355
LeftLeg  55.3892 3.20722 5.13943
LeftFoot  -10.4667 0.172143 -18.7051
LeftToes  6.91183e-011 3.39355e-011 2.1261e-011
95
root  1.3244 34.8436 2.45572 -51.6205 -79.9843 47.6914
RightUpLeg  -23.9408 -14.1784 -6.9056
RightLeg  64.7202 -10.4869 -23.4285
RightFoot  -23.7277 1.15499 12.0981
RightToes  -1.16417e-010 0 -3.6325e-017
Spine  21.6575 -1.86022 -12.7304
Spine1  -13.9884 -4.74729 15.1468
HEad  -16.3112 14.1437 -10.2048
LeftShoulder1  1.97505 14.4976 29.8437
LeftArm  -87.4049 -58.3993 21.5516
LeftForeArm  42.0474 -38.7304 -6.51078
LeftHand  1.08532 11.3347 21.4398
RightShoulder  0.862597 1.25958 10.9571
RightArm  20.9563 -48.2339 39.6569
RightForeArm  -153.915 62.6217 164.154
RightHand  -2.51378 -12.3826 37.5932
LeftUpLeg  -22.467 15.9804 11.299
LeftLeg  65.2317 -1.11737 -1.81917
LeftFoot  -14.9587 -0.61967 -22.9464
LeftToes  6.91183e-011 3.39355e-011 2.1261e-011
96
root  1.1416 35.0484 1.91758 -18.4024 -73.5529 12.4696
RightUpLeg  -21.4757 -21.864 -5.58718
RightLeg  66.4643 -7.90278 -19.6171
RightFoot  -18.2632 0.807832 15.7481
RightToes  -1.16417e-010 0 -3.6325e-017
Spine  22.1002 -1.48936 -10.6514
Spine1  -14.621 -3.88793 12.8708
HEad  -11.5145 9.19177 -7.56081
LeftShoulder1  1.2845 11.9121 26.7408
LeftArm  -49.511 -69.0621 -21.5022
LeftForeArm  46.2817 -56.7952 -13.4185
LeftHand  0.997479 13.5764 14.8622
RightShoulder  0.720886 0.943225 8.82785
RightArm  21.5211 -42.8457 38.3759
RightForeArm  -151.049 55.2651 168.437
RightHand  -2.95471 -11.9305 46.6385
LeftUpLeg  -26.4829 20.3373 6.36364
LeftLeg  66.8235 -3.71486 -8.62031
LeftFoot  -12.7105 -0.235945 -23.7552
LeftToes  6.91183e-011 3.39355e-011 2.1261e-011
97
root  0.901751 35.3277 1.56373 -5.90799 -66.9919 -2.36285
RightUpLeg  -18.9279 -27.0128 -6.72089
RightLeg  68.3224 -2.2973 -7.01092
RightFoot  -9.36238 -0.396935 19.556
RightToes  -1.16417e-010 0 -3.6325e-017
Spine  22.5862 -0.524548 -5.89897
Spine1  -14.7675 -1.96322 8.32179
HEad  -8.60443 7.96785 -6.16838
LeftShoulder1  0.351708 6.97792 20.6881
LeftArm  14.1851 -67.8734 -85.3157
LeftForeArm  53.6101 -69.8536 -24.4465
LeftHand  0.458762 15.4427 5.87656
RightShoulder  0.551753 0.554389 5.85818
RightArm  21.7511 -34.2435 37.6629
RightForeArm  -152.792 49.2242 170.731
RightHand  -3.31134 -13.2345 43.7018
LeftUpLeg  -26.5711 18.6546 5.47128
LeftLeg  63.4947 -3.64265 -7.35598
LeftFoot  -11.0875 0.145 -18.1284
LeftToes  6.91183e-011 3.39355e-011 2.1261e-011
98
root  0.618693 35.3607 1.29946 1.21664 -62.5196 -10.8179
RightUpLeg  -16.5478 -27.4391 -10.3501
RightLeg  69.42 2.0805 5.05318
RightFoot  -5.04094 -1.22814 21.7539
RightToes  -1.16417e-010 0 -3.6325e-017
Spine  22.6633 1.22437 -1.46677
Spine1  -14.4695 0.653685 3.53521
HEad  -9.64666 11.2485 -5.10347
LeftShoulder1  -0.0268414 2.35301 11.8817
LeftArm  16.9832 -40.638 -80.0677
LeftForeArm  65.0181 -75.3637 -35.8684
LeftHand  0.034645 15.1972 1.28092
RightShoulder  0.39182 0.060914 2.92321
RightArm  20.6727 -18.7901 39.0905
RightForeArm  -152.238 47.1424 171.465
RightHand  -2.70206 -13.3233 35.6195
LeftUpLeg  -26.1905 13.2275 7.73027
LeftLeg  61.3404 -0.741669 -0.818328
LeftFoot  -15.1291 -0.245898 -10.1127
LeftToes  6.91183e-011 3.39355e-011 2.1261e-011
99
root  0.288184 35.3232 1.03405 6.28748 -59.9168 -15.1924
RightUpLeg  -13.2938 -25.2927 -15.7029
RightLeg  64.7649 2.32532 5.26436
RightFoot  -8.0814 -0.733523 23.3337
RightToes  -1.16417e-010 0 -3.6325e-017
Spine  21.6686 3.47982 2.26357
Spine1  -14.3847 3.7333 -2.07198
HEad  -13.1494 16.8526 -3.68452
LeftShoulder1  0.261309 -0.0365817 0.951539
LeftArm  24.6511 -17.003 -78.6204
LeftForeArm  70.6726 -76.6571 -40.2282
LeftHand  0.0832038 13.5148 2.24929
RightShoulder  0.304787 -0.213104 0.952777
RightArm  18.6846 1.61464 43.911
RightForeArm  -153.103 51.3712 169.894
RightHand  -1.77927 -12.5056 26.4754
LeftUpLeg  -27.0612 9.76748 9.89097
LeftLeg  60.4981 1.75359 3.99108
LeftFoot  -18.8047 -0.326248 -6.53305
LeftToes  6.91183e-011 3.39355e-011 2.1261e-011
100
root  -0.0686395 35.3748 0.828104 9.00995 -57.3221 -16.0233
RightUpLeg  -7.2432 -23.4511 -22.2993
RightLeg  51.3892 -2.79519 -3.81086
RightFoot  -6.7086 -0.953178 23.119
RightToes  -1.16417e-010 0 -3.6325e-017
Spine  20.1935 6.02119 6.66339
Spine1  -14.2852 7.36175 -10.7454
HEad  -16.2516 21.0679 -1.67074
LeftShoulder1  0.835126 -1.93806 -7.82223
LeftArm  25.8991 1.59578 -68.2505
LeftForeArm  68.6624 -75.758 -36.9557
LeftHand  0.141499 11.4695 3.62196
RightShoulder  0.262379 -0.197619 -0.580713
RightArm  17.8048 21.1781 50.8582
RightForeArm  -161.375 61.4159 164.368
RightHand  -0.906812 -12.0702 13.2634
LeftUpLeg  -28.6587 9.80747 10.1601
LeftLeg  59.0615 1.71183 3.68833
LeftFoot  -20.1484 -0.29028 -5.33145
LeftToes  6.91183e-011 3.39355e-011 2.1261e-011
